<?xml version="1.0" encoding="utf-8"?>
<svg xmlns="http://www.w3.org/2000/svg" viewBox="0 0 220 220" xmlns:bx="https://boxy-svg.com" width="220px" height="220px"><defs/><g id="object-2" transform="matrix(1, 0, 0, 1, -140.000122, -140)"><g transform="matrix(0.230964, 0, 0, 0.230964, -8.785007, -8.37805)" id="object-0"><rect style="stroke-width: 25.9781px; fill: rgb(247, 246, 239); stroke: rgb(69, 27, 3);" x="664.467" y="662.779" width="911.979" height="911.83" rx="129.89" ry="129.89"/></g><g transform="matrix(1, 0, 0, 1, 0, -6)" id="object-1"><g transform="matrix(1, 0, 0, 1, -90.15699, 108.05999)"><path d="M 260.014 218.392 L 260.014 207.05 L 262.582 207.05 Q 268.36 207.05 272.319 204.054 Q 276.278 201.058 279.702 191.428 L 326.14 65.596 L 355.458 65.596 L 400.184 191.642 Q 403.394 200.63 407.353 203.84 Q 411.312 207.05 416.448 207.05 L 420.3 207.05 L 420.3 218.392 L 349.68 218.392 L 349.68 207.05 L 358.026 207.05 Q 361.236 207.05 364.232 205.124 Q 367.228 203.198 367.228 198.704 Q 367.228 196.136 366.586 193.675 Q 365.944 191.214 365.302 189.502 L 357.812 168.102 L 305.81 168.102 L 299.604 186.506 Q 298.748 189.074 297.892 192.605 Q 297.036 196.136 297.036 198.704 Q 297.036 202.77 300.032 204.91 Q 303.028 207.05 306.666 207.05 L 315.654 207.05 L 315.654 218.392 Z M 310.304 155.048 L 353.532 155.048 L 342.19 119.952 Q 340.05 112.676 337.375 103.688 Q 334.7 94.7 332.988 87.21 Q 331.062 94.058 328.28 102.725 Q 325.498 111.392 322.93 118.882 Z" style="line-height: 0px; text-wrap-mode: nowrap; fill: rgb(69, 27, 3);"/><path d="M 299.027 97.955 L 299.027 86.613 L 301.595 86.613 C 305.447 86.613 308.692 85.614 311.332 83.617 C 313.971 81.62 321.391 78.387 323.674 71.967 L 339.284 65.488 C 338.713 67.2 337.475 69.814 336.905 72.168 C 336.334 74.522 336.049 76.555 336.049 78.267 C 336.049 80.978 337.047 83.046 339.045 84.473 C 341.042 85.9 343.253 86.613 345.679 86.613 L 354.667 86.613 L 354.667 97.955 L 299.027 97.955 Z" style="line-height: 0px; text-wrap-mode: nowrap; stroke-width: 1; fill: rgb(69, 27, 3);" transform="matrix(-1, 0, 0, -1, 653.69397, 163.443026)"/><path d="M 415.968 189.483 L 442.109 174.519 L 446.231 195.98 C 448.371 201.972 455.379 201.681 458.019 203.821 C 460.658 205.961 463.69 207.031 467.114 207.031 L 470.966 207.031 L 470.966 218.373 L 400.346 218.373 L 400.346 207.031 L 408.692 207.031 C 410.832 207.031 412.9 206.389 414.898 205.105 C 416.895 203.821 417.894 201.681 417.894 198.685 C 417.894 196.973 417.68 195.297 417.252 193.656 C 416.824 192.015 416.396 190.624 415.968 189.483 Z" style="line-height: 0px; text-wrap-mode: nowrap; stroke-width: 1; fill: rgb(69, 27, 3);" transform="matrix(-1, 0, 0, -1, 781.645968, 283.950023)"/></g><g id="_x32_" style="" transform="matrix(0.217371, 0, 0, 0.217371, 271.700897, 169.363251)"><g transform="matrix(1, 0, 0, 1, -146.363388, 110.40554)"><path class="st0" d="M 491.951 25.833 C 491.951 25.833 473.373 54.13 352.013 96.005 C 228.294 138.693 152.138 312.411 152.138 312.411 C 133.794 347.989 61.325 495.864 61.325 499.864 L 76.325 499.864 C 117.481 424.161 144.013 354.989 206.575 353.02 C 297.794 350.145 360.184 268.911 340.559 272.661 C 314.715 284.145 257.778 273.536 291.325 268.27 C 371.856 261.676 421.45 199.973 405.294 195.77 C 376.731 206.989 350.122 196.348 344.903 193.114 C 510.092 192.817 491.951 25.833 491.951 25.833 Z" style="paint-order: stroke; stroke-width: 50.6047px; fill: rgb(69, 27, 3); stroke: rgb(247, 246, 239);"/><path style="fill: rgb(69, 27, 3);" d="M 61.337 499.854 H 76.323 V 538.497 A 7.361 7.361 0 0 1 68.962 545.858 H 68.698 A 7.361 7.361 0 0 1 61.337 538.497 V 499.854 Z"/><rect style="stroke-width: 1; fill: rgb(69, 27, 3);" transform="matrix(0.691716, 0.722169, -0.722169, 0.691716, 407.211669, 157.223911)" x="33.997" y="501.108" width="14.986" height="46.004" rx="7.361" ry="7.361"/><path style="stroke-width: 1; fill: rgb(69, 27, 3);" transform="matrix(0, 1, -1, 0, 404.349949, 519.015347)" d="M 41.358 350.781 H 41.622 A 7.361 7.361 0 0 1 48.983 358.142 V 382.984 H 33.997 V 358.142 A 7.361 7.361 0 0 1 41.358 350.781 Z"/><ellipse style="stroke-width: 13.8013px; fill: none; stroke: rgb(69, 27, 3);" cx="0.792" cy="561.195" rx="17.153" ry="17.153"/><rect style="stroke-width: 1; fill: rgb(69, 27, 3);" transform="matrix(0.691717, 0.722169, -0.722169, 0.691717, 1058.919258, -298.318209)" x="33.997" y="1238.34" width="14.986" height="113.685" rx="7.361" ry="7.361"/><path style="stroke-width: 1; fill: rgb(69, 27, 3);" transform="matrix(0, 1, -1, 0, 474.782291, 620.241329)" d="M 41.358 350.781 H 41.622 A 7.361 7.361 0 0 1 48.983 358.142 V 382.984 H 33.997 V 358.142 A 7.361 7.361 0 0 1 41.358 350.781 Z"/><ellipse style="stroke-width: 13.801; stroke: rgb(69, 27, 3); fill: none;" cx="71.218" cy="662.42" rx="17.153" ry="17.153"/><rect style="stroke-width: 1; fill: rgb(69, 27, 3);" transform="matrix(0.691717, 0.722169, -0.722169, 0.691717, 917.194815, -285.611666)" x="33.997" y="1238.34" width="14.986" height="113.685" rx="7.361" ry="7.361"/><path style="stroke-width: 1; fill: rgb(69, 27, 3);" transform="matrix(0, 1, -1, 0, 333.057713, 632.94714)" d="M 41.358 350.781 H 41.622 A 7.361 7.361 0 0 1 48.983 358.142 V 382.984 H 33.997 V 358.142 A 7.361 7.361 0 0 1 41.358 350.781 Z"/><ellipse style="stroke-width: 13.801; stroke: rgb(69, 27, 3); fill: none;" cx="-70.507" cy="675.127" rx="17.153" ry="17.153"/><path style="stroke-width: 1; fill: rgb(69, 27, 3);" transform="matrix(0, 1, -1, 0, 428.045017, 564.535244)" d="M 41.358 350.781 H 41.622 A 7.361 7.361 0 0 1 48.983 358.142 V 382.984 H 33.997 V 358.142 A 7.361 7.361 0 0 1 41.358 350.781 Z"/><rect style="stroke-width: 1; fill: rgb(69, 27, 3);" transform="matrix(0.691717, 0.722169, -0.722169, 0.691717, 555.122873, 83.78872)" x="33.997" y="658.15" width="14.986" height="60.421" rx="7.361" ry="7.361"/></g></g></g></g></svg>